# xmcd
#
# Track frame offsets:
# 150
# 14251
# 37074
# 59735
# 77384
# 97457
# 117241
# 138284
# 160219
# 178718
#
# Disc length: 2630 seconds
#
#
# Revision: 0
# Processed by: cddbd v1.5.1PL2 Copyright (c) Steve Scherf et al.
# Submitted via: CDLP Version 5
#
DISCID=870a440a
DTITLE=倖田來未 - BEST〜first things〜
DYEAR=1900
DGENRE=Misc
TTITLE0=キューティーハニー
TTITLE1=トラック 2
TTITLE2=トラック 3
TTITLE3=トラック 4
TTITLE4=トラック 5
TTITLE5=トラック 6
TTITLE6=トラック 7
TTITLE7=トラック 8
TTITLE8=トラック 9
TTITLE9=トラック 10
EXTD=
EXTT0=
EXTT1=
EXTT2=
EXTT3=
EXTT4=
EXTT5=
EXTT6=
EXTT7=
EXTT8=
EXTT9=
PLAYORDER=
